<svg width="459" height="321" viewBox="0 0 459 321" fill="none" xmlns="http://www.w3.org/2000/svg">
<rect y="267" width="459" height="54" rx="27" fill="#D9D9D9"/>
<path d="M63 247L63 76C63 61.0883 75.0883 49 90 49V49C104.912 49 117 61.0883 117 76V247H63Z" fill="#D9D9D9"/>
<path d="M155 247V122C155 107.088 167.088 95 182 95V95C196.912 95 209 107.088 209 122V247H155Z" fill="#D9D9D9"/>
<path d="M248 247V90C248 75.0883 260.088 63 275 63V63C289.912 63 302 75.0883 302 90V247H248Z" fill="#D9D9D9"/>
<path d="M341 247V27C341 12.0883 353.088 0 368 0V0C382.912 0 395 12.0883 395 27V247H341Z" fill="#D9D9D9"/>
</svg>
