<svg width="59" height="43" viewBox="0 0 59 43" fill="none" xmlns="http://www.w3.org/2000/svg">
<path d="M34.2048 28.5C35.0212 27.3061 35.9494 26.2154 37 25.3257M38 42H57C57 42 55.1009 31.0459 49.5 25.7725" stroke="white" stroke-width="2" stroke-linecap="round"/>
<path d="M52 20C52 24.368 48.2461 28 43.5 28C38.7539 28 35 24.368 35 20C35 15.632 38.7539 12 43.5 12C48.2461 12 52 15.632 52 20Z" stroke="white" stroke-width="2"/>
<path d="M12.6542 19.5C4.66625 26.0027 2 41.9999 2 41.9999H37.7C37.7 41.9999 35.2051 25.8524 27 19.5" stroke="white" stroke-width="2" stroke-linecap="round"/>
<circle cx="19.85" cy="11.55" r="10.55" stroke="white" stroke-width="2"/>
</svg>
